<svg xmlns="http://www.w3.org/2000/svg" viewBox="0 0 1111.29 298.73"><defs><style>.cls-1{fill:#e74c3c;}</style></defs><title>Full Logo orange</title><g id="Layer_2" data-name="Layer 2"><g id="Layer_1-2" data-name="Layer 1"><path class="cls-1" d="M339.49,187.54h58.1v3.23H370.16v69.79h-3.34V190.77H339.49Z"/><path class="cls-1" d="M463.84,250.86c-4.9,6.78-14,10.12-22.32,10.12-13.67,0-25.67-9.49-25.67-26.08,0-15.75,11.06-26.5,25.56-26.5,13.88,0,27.65,8,25.67,28H419c1.15,14.71,11.48,21.59,22.54,21.59,7.3,0,15.85-3.23,19.92-8.86Zm.42-17.42c.42-14.29-8.66-22-22.85-22-12.1,0-21.49,7.92-22.43,22Z"/><path class="cls-1" d="M547,253.36A26.41,26.41,0,0,1,528.53,261c-14.4,0-26.4-10.43-26.4-26.19s11.48-26.18,26.4-26.18a27.42,27.42,0,0,1,18.77,7.72l-2.08,2c-4.38-4.59-10.75-6.68-16.8-6.68-12.41,0-23.16,8-23.16,23.16,0,14.82,10.64,23.16,23.27,23.16a23,23,0,0,0,16.37-6.67Z"/><path class="cls-1" d="M585.7,187.54h3.13V209l-.42,12.83c4.28-10.23,12.73-13.36,20.66-13.46,14.18,0,20.65,7.93,20.65,21.8v30.36h-3.13V230.31c0-13-5.63-18.68-17.52-19a19.86,19.86,0,0,0-20.24,19.93v29.31H585.7v-73Z"/><path class="cls-1" d="M671.66,209h3.13l-.1,11.68c4.17-9.08,12.93-12.52,20.34-12.62,14.19,0,22.22,8.24,22.22,22.11v30.36h-3.13V230.31c0-12.73-7.2-19.3-19.09-19.2a20.11,20.11,0,0,0-20.24,20.14v29.31h-3.13Z"/><path class="cls-1" d="M781.94,208.19c14,0,26.08,10.23,26.08,26.71,0,16.79-12.21,26.29-26.19,26.29s-26.08-9.5-26.08-26.29S767.85,208.19,781.94,208.19Zm-.11,3c-12.21,0-23,9-23,23.68s10.74,23.26,23,23.26,23.06-8.55,23.06-23.26S794.35,211.22,781.83,211.22Z"/><path class="cls-1" d="M851.1,187.54v73H848v-73Z"/><path class="cls-1" d="M917.25,208.19c14,0,26.08,10.23,26.08,26.71,0,16.79-12.21,26.29-26.19,26.29s-26.08-9.5-26.08-26.29S903.16,208.19,917.25,208.19Zm-.11,3c-12.21,0-22.95,9-22.95,23.68s10.74,23.26,22.95,23.26,23.06-8.55,23.06-23.26S929.66,211.22,917.14,211.22Z"/><path class="cls-1" d="M983.6,271.41c.1,11.06,10.95,16.8,21.8,16.8,11.16,0,22.43-4.28,22.43-15.13,0-11.79-12.83-15.23-22.43-15.23-15.23,0-26.29-8.87-26.29-24.93,0-16.59,13.67-24.94,26.29-24.94,5.74,0,12.31,1.88,16.38,4.8l5.22-6.15,2.29,1.67-5.32,6.26c3.44,3.65,7.51,8,7.51,18.36,0,8.86-5.53,20.65-17.52,23.05,8.86,1.57,17,6.89,17,17.11,0,11.68-11.89,18.15-25.56,18.15-12.62,0-24.72-6.88-24.83-19.82Zm21.8-16.59c14.19,0,22.95-10.85,22.95-21.9,0-15.65-11.79-21.91-22.95-21.91-10.95,0-23.16,6.68-23.16,21.91C982.24,247.94,992.36,254.82,1005.4,254.82Z"/><path class="cls-1" d="M1111.29,209l-32.86,76.78H1075l11-25.87L1065.08,209h3.44l19.2,47.67,20-47.67Z"/><path class="cls-1" d="M410.24,64.73c-3.7-6.16-13.87-12-25.59-12C369.55,52.71,362.3,59,362.3,67c0,9.41,11.1,12,24.05,13.57,22.51,2.77,43.47,8.63,43.47,34.38,0,24-21.27,34.38-45.32,34.38-22.05,0-39-6.79-47-26.52l17-8.79c4.78,11.87,17.26,17.12,30.37,17.12,12.79,0,24.82-4.48,24.82-16.19,0-10.18-10.64-14.34-25-15.88-22-2.62-42.39-8.48-42.39-32.68,0-22.2,21.89-31.3,41.78-31.45,16.8,0,34.22,4.78,42.39,21.43Z"/><path class="cls-1" d="M470.52,49.16V70.74h21V86.93H470.37v32.84c0,7.24,4,10.79,9.86,10.79a21.63,21.63,0,0,0,9.1-2.31l5.24,16A42.13,42.13,0,0,1,479,147.52c-16.5.61-27.29-8.79-27.29-27.75V86.93H437.53V70.74h14.18V51.17Z"/><path class="cls-1" d="M524.63,70.59,526,79.38c5.86-9.41,13.72-10.79,21.43-10.79s15.41,3.08,19.58,7.24l-8.48,16.34A18.83,18.83,0,0,0,545,87.24c-9.87,0-19,5.24-19,19.27v40.08H507.21v-76Z"/><path class="cls-1" d="M590,115.3c1.23,9.4,9.4,16.18,22.66,16.18,6.94,0,16-2.62,20.35-7.09l12,11.87c-8,8.33-21.12,12.34-32.68,12.34-26.21,0-41.78-16.19-41.78-40.55,0-23.12,15.73-39.77,40.39-39.77,25.44,0,41.32,15.72,38.39,47Zm41.31-15.57c-1.23-9.87-8.94-14.8-19.73-14.8-10.18,0-18.5,4.93-21.28,14.8Z"/><path class="cls-1" d="M712.4,90.78C707,85.7,700.84,84,693.59,84c-8.94,0-13.87,2.78-13.87,7.56s4.47,7.7,14.18,8.32c14.34.93,32.53,4.16,32.53,24.36,0,13.41-10.95,25-32.68,25-12,0-24-2-35.15-13.56l9.25-13.42c7.24,7.56,17.73,10.49,26.21,10.64,7.09.16,13.72-2.77,13.72-8.32,0-5.24-4.32-8.17-15.11-8.79-14.34-1.08-31.45-6.32-31.45-23.59,0-17.57,18.19-23.74,32.06-23.74,11.87,0,20.82,2.31,29.6,10Z"/><path class="cls-1" d="M789,90.78C783.62,85.7,777.46,84,770.21,84c-8.94,0-13.87,2.78-13.87,7.56s4.47,7.7,14.18,8.32c14.34.93,32.53,4.16,32.53,24.36,0,13.41-10.95,25-32.69,25-12,0-24.05-2-35.14-13.56l9.24-13.42c7.25,7.56,17.73,10.49,26.21,10.64,7.09.16,13.72-2.77,13.72-8.32,0-5.24-4.31-8.17-15.1-8.79-14.34-1.08-31.45-6.32-31.45-23.59,0-17.57,18.19-23.74,32.06-23.74,11.87,0,20.81,2.31,29.6,10Z"/><path class="cls-1" d="M825.55,146.59V88.16H811.37V71.67h14.18V66.58c0-20.35,13.72-29.75,29-29.75A36.75,36.75,0,0,1,874.27,43l-6.94,14c-4-2.62-7.71-4-11.56-4-6.48,0-11.41,4.31-11.41,13.56v5.09h22.35V88.16H844.36v58.43Z"/><path class="cls-1" d="M896.62,70.59,898,79.38c5.86-9.41,13.72-10.79,21.43-10.79s15.41,3.08,19.58,7.24l-8.48,16.34A18.83,18.83,0,0,0,917,87.24c-9.87,0-19,5.24-19,19.27v40.08H879.2v-76Z"/><path class="cls-1" d="M962,115.3c1.23,9.4,9.4,16.18,22.66,16.18,6.94,0,16-2.62,20.35-7.09l12,11.87c-8,8.33-21.12,12.34-32.68,12.34-26.21,0-41.78-16.19-41.78-40.55,0-23.12,15.73-39.77,40.39-39.77,25.44,0,41.32,15.72,38.39,47Zm41.31-15.57c-1.23-9.87-8.94-14.8-19.73-14.8-10.18,0-18.5,4.93-21.28,14.8Z"/><path class="cls-1" d="M1051.55,115.3c1.24,9.4,9.41,16.18,22.67,16.18,6.93,0,16-2.62,20.35-7.09l12,11.87c-8,8.33-21.12,12.34-32.68,12.34-26.21,0-41.78-16.19-41.78-40.55,0-23.12,15.72-39.77,40.39-39.77,25.44,0,41.32,15.72,38.39,47Zm41.32-15.57c-1.23-9.87-8.94-14.8-19.73-14.8-10.18,0-18.5,4.93-21.28,14.8Z"/><path class="cls-1" d="M298.73,189.07a30.25,30.25,0,0,1-30.25,30.25,49.17,49.17,0,0,0-49.16,49.16,30.25,30.25,0,1,1-30.25-30.24,48.94,48.94,0,0,0,29-9.46,49.9,49.9,0,0,0,10.71-10.71,49.22,49.22,0,0,0,0-58,49.63,49.63,0,0,0-10.71-10.7,49.17,49.17,0,0,0-78.17,39.7,30.25,30.25,0,1,1-60.49,0A49.19,49.19,0,0,0,30.24,139.9a30.25,30.25,0,0,1,0-60.49A49.17,49.17,0,0,0,79.41,30.24a30.25,30.25,0,1,1,30.25,30.25,49.17,49.17,0,1,0,29,88.88,49.9,49.9,0,0,0,10.71-10.71,49,49,0,0,0,9.45-29,30.25,30.25,0,0,1,60.5,0,48.91,48.91,0,0,0,9.46,29,49,49,0,0,0,39.7,20.17A30.25,30.25,0,0,1,298.73,189.07Z"/><path class="cls-1" d="M298.73,109.66a30.25,30.25,0,0,1-60.5,0A49.16,49.16,0,0,0,160.07,70a49.63,49.63,0,0,0-10.7,10.71,48.94,48.94,0,0,0-9.47,28.78v.44a30.25,30.25,0,1,1-30.24-30.47,48.91,48.91,0,0,0,29-9.46,49.09,49.09,0,0,0,20.17-39.7,30.25,30.25,0,0,1,60.5,0,49.17,49.17,0,0,0,49.16,49.16A30.25,30.25,0,0,1,298.73,109.66Z"/><path class="cls-1" d="M219.32,189.07h0a30.25,30.25,0,0,1-30.25,30.25h0a49.19,49.19,0,0,0-49.17,49.16,30.25,30.25,0,0,1-60.49.21v-.41A49,49,0,0,0,70,239.49a49.45,49.45,0,0,0-10.71-10.71,48.94,48.94,0,0,0-29-9.46h0a30.25,30.25,0,1,1,30.25-30.25h0a48.92,48.92,0,0,0,9.46,29,49.45,49.45,0,0,0,10.71,10.71,49.18,49.18,0,0,0,58,0,49.67,49.67,0,0,0,10.71-10.71,49,49,0,0,0,9.45-29h0a30.24,30.24,0,0,1,30.25-30.24h0A30.24,30.24,0,0,1,219.32,189.07Z"/><path class="cls-1" d="M79.41,268.28v0Z"/></g></g></svg>